<?xml version="1.0" standalone="no"?>
<!DOCTYPE svg PUBLIC "-//W3C//DTD SVG 20010904//EN"
 "http://www.w3.org/TR/2001/REC-SVG-20010904/DTD/svg10.dtd">
<svg version="1.0" xmlns="http://www.w3.org/2000/svg"
 width="1024.000000pt" height="1024.000000pt" viewBox="0 0 1024.000000 1024.000000"
 preserveAspectRatio="xMidYMid meet">

<g transform="translate(0.000000,1024.000000) scale(0.100000,-0.100000)"
fill="#000000" stroke="none">
<path d="M4555 8139 c-651 -6 -638 -4 -831 -99 -268 -131 -446 -322 -552 -590
-57 -145 -56 -78 -56 -2090 l-1 -1855 22 -88 c40 -154 108 -278 242 -436 90
-107 266 -217 446 -281 170 -60 144 -58 1095 -61 l875 -3 55 29 c36 19 104 78
194 168 77 76 180 172 230 212 122 98 451 439 486 504 16 30 16 122 0 152
l-12 22 -247 -5 c-265 -6 -299 -12 -338 -61 -19 -24 -20 -46 -26 -353 -4 -180
-11 -332 -16 -337 -5 -5 -132 -5 -328 2 -176 6 -628 11 -1004 11 -756 0 -751
0 -901 64 -161 70 -270 176 -349 341 -80 167 -73 -11 -77 1955 -2 1212 1 1777
8 1825 23 151 61 241 152 360 80 104 222 202 348 239 99 30 253 36 1100 42
600 5 837 10 842 18 15 23 61 304 52 315 -6 6 -782 7 -1409 0z"/>
<path d="M6095 8127 c8 -32 11 -440 5 -782 -6 -328 -6 -325 72 -386 l42 -34
350 -5 351 -5 7 -40 c3 -22 7 -754 8 -1627 1 -1323 4 -1588 15 -1588 7 0 15 4
17 9 2 5 29 40 61 78 31 37 81 100 110 139 28 39 72 97 97 129 l45 58 5 1466
5 1466 -170 175 c-93 96 -341 343 -550 549 -395 388 -487 466 -470 398z"/>
<path d="M4988 7536 c-123 -36 -241 -125 -322 -241 -79 -112 -106 -200 -106
-345 0 -188 82 -344 244 -465 91 -67 139 -92 233 -116 234 -59 487 27 630 215
55 72 119 212 134 293 12 64 5 192 -12 224 -10 19 -15 17 -79 -45 -37 -36 -72
-66 -77 -66 -5 0 -14 -36 -21 -80 -22 -156 -104 -274 -232 -334 -62 -30 -71
-31 -190 -31 -122 0 -128 1 -192 33 -82 40 -159 121 -202 212 -55 118 -46 314
20 413 93 141 254 209 419 178 58 -11 61 -11 75 11 8 13 33 42 57 64 47 45 52
58 26 69 -101 41 -287 46 -405 11z"/>
<path d="M5684 7520 c-25 -13 -96 -79 -184 -173 -79 -84 -186 -196 -237 -250
l-93 -98 -75 71 c-91 86 -111 90 -177 38 -44 -34 -48 -60 -19 -124 27 -58 227
-264 257 -264 15 0 47 26 101 82 43 45 92 95 108 112 17 17 75 81 130 141 54
61 157 168 228 238 117 116 128 131 122 155 -8 33 -31 59 -67 78 -36 18 -45
18 -94 -6z"/>
<path d="M4212 6102 l-232 -2 -44 -43 c-75 -71 -73 -161 4 -231 l40 -36 1183
0 c650 1 1201 5 1225 9 84 16 138 108 113 191 -12 41 -67 97 -104 104 -25 6
-1831 12 -2185 8z"/>
<path d="M4148 5510 c-197 -6 -214 -11 -251 -81 -33 -63 -3 -173 57 -210 30
-19 69 -19 1243 -17 l1212 3 28 21 c44 33 67 81 68 140 0 60 -21 97 -75 128
-32 19 -66 19 -1069 20 -570 1 -1116 -1 -1213 -4z"/>
<path d="M3959 4897 c-18 -12 -44 -38 -56 -56 -44 -65 -23 -172 42 -216 30
-20 42 -20 1248 -19 1195 1 1218 1 1244 21 44 32 66 69 71 121 6 63 -16 111
-67 146 l-37 26 -1206 0 -1205 0 -34 -23z"/>
<path d="M3952 4300 c-90 -55 -96 -187 -10 -267 l23 -22 1216 -6 1216 -6 34
28 c51 42 68 65 75 100 11 58 -4 104 -51 150 l-42 43 -1214 0 c-1194 0 -1215
0 -1247 -20z"/>
<path d="M7262 3728 c-22 -61 -181 -238 -277 -310 -49 -37 -119 -101 -155
-142 -36 -41 -126 -125 -200 -186 -74 -62 -164 -140 -200 -174 -36 -35 -117
-106 -181 -159 -113 -93 -146 -125 -138 -130 2 -2 63 0 134 4 137 7 284 40
425 96 230 91 405 258 536 511 56 109 75 195 81 375 6 148 -1 180 -25 115z"/>
<path d="M3958 3694 c-15 -8 -39 -35 -54 -60 -22 -37 -26 -54 -22 -94 6 -56
36 -106 83 -138 l31 -22 878 0 c804 0 880 1 906 17 47 27 63 69 58 151 -3 63
-7 75 -33 103 -60 63 -3 59 -952 59 -745 -1 -872 -3 -895 -16z"/>
</g>
</svg>
